<svg width="52" height="29" xmlns="http://www.w3.org/2000/svg" fill-rule="evenodd" clip-rule="evenodd" stroke-linejoin="round" stroke-miterlimit="2"><path d="M17.121 23.057V18.89h2.067v4.167h-2.067zm-16.666 0V18.89H2.52v4.167H.455zM17.12 18.89h-2.1v-2.1h-10.4v2.1h-2.1v-6.266h2.1v2.1h10.4v-2.1h2.1v6.266zm-2.1-6.266h-2.066V8.457h2.066v4.167zm-10.4 0V8.457h2.067v4.167H4.621zm8.334-4.167h-2.1V4.29h2.1v4.167zm-6.267 0V4.29h2.1v4.167h-2.1zm4.167-4.167H8.788V.124h2.067V4.29zM25.871 20.957h4.167v2.1h-4.167v-2.1zm0 0h-2.1v-12.5h-2.066V6.39h2.066V2.224h2.1V6.39h4.167v2.067h-4.167v12.5zM45.039 23.057v-2.1h-2.1V18.89h2.1v-4.166h-8.334v2.066h-2.1v4.167h8.334v2.1h-8.334v-2.1H32.54V16.79h2.066v-2.066h2.1v-2.1h8.334V8.457h2.066v14.6H45.04zm-12.5-12.5v-2.1h2.066v2.1H32.54zm12.5-2.1H34.605V6.39H45.04v2.067zM49.622 23.057V6.39h2.066v16.667h-2.066zm0-20.833v-2.1h2.066v2.1h-2.066z" fill-rule="nonzero"/></svg>